<svg width="83" height="83" viewBox="0 0 83 83" fill="none" xmlns="http://www.w3.org/2000/svg">
<rect x="0.5" y="0.5" width="82" height="82" rx="9.5" fill="white" stroke="#E2E4E8"/>
<path opacity="0.5" fill-rule="evenodd" clip-rule="evenodd" d="M58.0709 45.9451C56.1809 43.8899 52.9135 44.1748 51.3913 46.5062C49.866 44.1709 46.5947 43.8923 44.7071 45.9498C43.1113 47.6895 43.2937 50.4239 44.9489 52.1066L50.8318 58.0857C51.1386 58.3972 51.641 58.3972 51.9478 58.0857L57.8322 52.1066C59.4906 50.4224 59.6705 47.684 58.0709 45.9451Z" fill="#FF374F"/>
<path fill-rule="evenodd" clip-rule="evenodd" d="M38.087 45.3474H30.2609C29.8281 45.3474 29.4783 44.9968 29.4783 44.5648C29.4783 44.1328 29.8281 43.7822 30.2609 43.7822H38.087C38.5197 43.7822 38.8696 44.1328 38.8696 44.5648C38.8696 44.9968 38.5197 45.3474 38.087 45.3474Z" fill="#FF374F"/>
<path fill-rule="evenodd" clip-rule="evenodd" d="M27.1304 25H56.8696C58.596 25 60 26.404 60 28.1304V42.2174H58.4348V38.3043H25.5652V48.4783C25.5652 49.3415 26.2672 50.0435 27.1304 50.0435H39.6522V51.6087H27.1304C25.404 51.6087 24 50.2047 24 48.4783V28.1304C24 26.404 25.404 25 27.1304 25ZM25.5652 32.0435H58.4348V28.1304C58.4348 27.2672 57.7328 26.5652 56.8696 26.5652H27.1304C26.2672 26.5652 25.5652 27.2672 25.5652 28.1304V32.0435Z" fill="#FF374F"/>
</svg>
