<svg width="83" height="83" viewBox="0 0 83 83" fill="none" xmlns="http://www.w3.org/2000/svg">
<rect x="0.5" y="0.5" width="82" height="82" rx="9.5" fill="white" stroke="#E2E4E8"/>
<path opacity="0.5" fill-rule="evenodd" clip-rule="evenodd" d="M32.0389 28.126L33.1455 29.2326C35.4938 26.8842 38.6789 25.5649 42 25.5649C45.3211 25.5649 48.5061 26.8842 50.8544 29.2326L51.961 28.126C49.3192 25.4842 45.7361 24 42 24C38.2639 24 34.6808 25.4842 32.0389 28.126Z" fill="#FF374F"/>
<path opacity="0.5" fill-rule="evenodd" clip-rule="evenodd" d="M42 30.2607C39.9239 30.258 37.9323 31.083 36.4662 32.553L37.5728 33.6596C38.7469 32.4854 40.3395 31.8257 42 31.8257C43.6606 31.8257 45.2531 32.4854 46.4272 33.6596L47.5338 32.553C46.0677 31.083 44.0762 30.258 42 30.2607Z" fill="#FF374F"/>
<path fill-rule="evenodd" clip-rule="evenodd" d="M47.4783 52.1736V49.6074L45.6657 49.0025C45.458 48.9328 45.289 48.7794 45.1998 48.5793C45.1105 48.3792 45.1092 48.1509 45.1962 47.9499L47.4783 42.6829V41.2171C47.4681 38.1028 48.8895 35.1565 51.3334 33.2261C53.7773 31.2957 56.9727 30.5953 60 31.3265V59.2171H53.7391V55.304H50.6087C48.8798 55.304 47.4783 53.9025 47.4783 52.1736Z" fill="#FF374F"/>
<path fill-rule="evenodd" clip-rule="evenodd" d="M36.5217 52.1744V49.6082L38.3343 49.0033C38.542 48.9336 38.711 48.7801 38.8002 48.5801C38.8895 48.38 38.8908 48.1517 38.8038 47.9506L36.5217 42.6837V41.2179C36.5217 35.599 31.9667 31.0439 26.3478 31.0439C25.5569 31.0469 24.769 31.142 24 31.3272V59.2179H30.2609V55.3048H33.3913C35.1202 55.3048 36.5217 53.9033 36.5217 52.1744Z" fill="#FF374F"/>
<path opacity="0.5" fill-rule="evenodd" clip-rule="evenodd" d="M42 39.6519C42.8644 39.6519 43.5652 38.9511 43.5652 38.0867C43.5652 37.2223 42.8644 36.5215 42 36.5215C41.1355 36.5215 40.4348 37.2223 40.4348 38.0867C40.4348 38.9511 41.1355 39.6519 42 39.6519Z" fill="#FF374F"/>
</svg>
