<svg width="83" height="83" viewBox="0 0 83 83" fill="none" xmlns="http://www.w3.org/2000/svg">
<rect x="0.5" y="0.5" width="82" height="82" rx="9.5" fill="white" stroke="#E2E4E8"/>
<path opacity="0.2" fill-rule="evenodd" clip-rule="evenodd" d="M31.0435 41.9995C31.0435 48.0412 35.9582 52.956 42 52.956C48.0417 52.956 52.9565 48.0412 52.9565 41.9995C52.9565 35.9578 48.0417 31.043 42 31.043C35.9582 31.043 31.0435 35.9578 31.0435 41.9995ZM32.6087 41.9995C32.6087 36.821 36.8215 32.6082 42 32.6082C47.1785 32.6082 51.3913 36.821 51.3913 41.9995C51.3913 47.178 47.1785 51.3908 42 51.3908C36.8215 51.3908 32.6087 47.178 32.6087 41.9995Z" fill="#FF374F"/>
<path opacity="0.5" fill-rule="evenodd" clip-rule="evenodd" d="M42 45.13C43.7289 45.13 45.1304 43.7285 45.1304 41.9996C45.1304 40.2707 43.7289 38.8691 42 38.8691C40.2711 38.8691 38.8696 40.2707 38.8696 41.9996C38.8696 43.7285 40.2711 45.13 42 45.13Z" fill="#FF374F"/>
<path fill-rule="evenodd" clip-rule="evenodd" d="M58.3346 34.433C57.919 34.753 57.4659 35.027 56.9776 35.2359C57.9253 37.3341 58.4348 39.631 58.4348 42C58.4348 51.0626 51.0626 58.4348 42 58.4348C32.9374 58.4348 25.5652 51.0626 25.5652 42C25.5652 32.9374 32.9374 25.5652 42 25.5652C45.1477 25.5652 48.221 26.4879 50.8505 28.1682C50.7034 28.5798 50.6087 29.0165 50.6087 29.4783C50.6087 31.6359 52.3641 33.3913 54.5217 33.3913C56.6794 33.3913 58.4348 31.6359 58.4348 29.4783C58.4348 27.3206 56.6794 25.5652 54.5217 25.5652C53.3885 25.5652 52.3743 26.0575 51.659 26.8299C48.7868 25.0025 45.4333 24 42 24C32.075 24 24 32.075 24 42C24 51.925 32.075 60 42 60C51.925 60 60 51.925 60 42C60 39.3462 59.4185 36.7722 58.3346 34.433Z" fill="#FF374F"/>
</svg>
